# xmcd
#
# Track frame offsets:
#	150
#	10746
#	26117
#	44834
#	56762
#	72422
#	83847
#	102264
#	114942
#	128770
#	146753
#	160181
#
# Disc length: 2497 seconds
#
# Revision: 1
# Processed by: cddbd v1.5.2PL0 Copyright (c) Steve Scherf et al.
# Submitted via: audiograbber 1.83.01
#
DISCID=a509bf0c
DTITLE=FLÁVIO JOSÉ - CANTA LUIZ GONZAGA
DYEAR=1900
DGENRE=FORRÓ
TTITLE0=XANDUZINHO
TTITLE1=AMEI ATÔA
TTITLE2=A SORTE É CEGA
TTITLE3=RANCHINHO DE PAIA
TTITLE4=CIGARRO DE PAIA
TTITLE5=SABIÁ
TTITLE6=O FOLE RONCOU
TTITLE7=LÉGUA TIRANA
TTITLE8=ESTRADA DE CANINDÉ
TTITLE9=RIACHO DO NAVIO-RESPEITA JANUÁRIO
TTITLE10=PEDIDO À SÃO JOÃO-CABOCLO NORDESTINO
TTITLE11=APROVEITA GENTE-NEM SE DESPEDIU DE MIM-NOITES BRASILEIRAS-FOGO SEM FUZ
TTITLE11=IL-OLHA PRO CÉU-SÕ JOÃO NA ROÇA
EXTD=
EXTT0=
EXTT1=
EXTT2=
EXTT3=
EXTT4=
EXTT5=
EXTT6=
EXTT7=
EXTT8=
EXTT9=
EXTT10=
EXTT11=
PLAYORDER=
